# xmcd CD database file
#
# Track frame offsets:
#	150
#	22566
#	41893
#
# Disc length: 843 seconds
#
# Revision: 2
# Processed by: cddbd v1.5.2PL0 Copyright (c) Steve Scherf et al.
# Submitted via: CDex 1.70beta3
#
DISCID=17034903
DTITLE=Mariah Carey - Breakdown US promo
DYEAR=1900
DGENRE=Blues
TTITLE0=Breakdown-The Mo' Thugs Remix
TTITLE1=Breakdown-Radio Edit
TTITLE2=Breakdown-Album Version
EXTD=
EXTT0=
EXTT1=
EXTT2=
PLAYORDER=
